<svg viewBox="0 0 41 41" xmlns="http://www.w3.org/2000/svg">
<g clip-path="url(#clip0_15_254)">
<path d="M34.1666 29.8958C34.8247 29.8961 35.4574 30.1496 35.9337 30.6038C36.4099 31.0579 36.6932 31.6779 36.7249 32.3352C36.7565 32.9925 36.534 33.6368 36.1035 34.1345C35.6731 34.6323 35.0676 34.9454 34.4126 35.0089L34.1666 35.0208H6.83325C6.17517 35.0205 5.54244 34.767 5.06617 34.3129C4.58991 33.8587 4.30661 33.2388 4.27498 32.5815C4.24336 31.9241 4.46583 31.2799 4.8963 30.7821C5.32677 30.2843 5.93224 29.9713 6.58725 29.9078L6.83325 29.8958H34.1666ZM34.1666 17.9375C34.8462 17.9375 35.498 18.2075 35.9785 18.688C36.4591 19.1686 36.7291 19.8204 36.7291 20.5C36.7291 21.1796 36.4591 21.8314 35.9785 22.312C35.498 22.7925 34.8462 23.0625 34.1666 23.0625H6.83325C6.15363 23.0625 5.50185 22.7925 5.02129 22.312C4.54073 21.8314 4.27075 21.1796 4.27075 20.5C4.27075 19.8204 4.54073 19.1686 5.02129 18.688C5.50185 18.2075 6.15363 17.9375 6.83325 17.9375H34.1666ZM34.1666 5.97916C34.8462 5.97916 35.498 6.24913 35.9785 6.7297C36.4591 7.21026 36.7291 7.86204 36.7291 8.54166C36.7291 9.22127 36.4591 9.87306 35.9785 10.3536C35.498 10.8342 34.8462 11.1042 34.1666 11.1042H6.83325C6.15363 11.1042 5.50185 10.8342 5.02129 10.3536C4.54073 9.87306 4.27075 9.22127 4.27075 8.54166C4.27075 7.86204 4.54073 7.21026 5.02129 6.7297C5.50185 6.24913 6.15363 5.97916 6.83325 5.97916H34.1666Z" fill="#55228B"/>
</g>
<defs>
<clipPath id="clip0_15_254">
<rect width="41" height="41" fill="white"/>
</clipPath>
</defs>
</svg>
