<svg width="232" height="136" viewBox="0 0 232 136" fill="none" xmlns="http://www.w3.org/2000/svg">
<path d="M232 68V124C232 127.183 230.736 130.235 228.485 132.485C226.235 134.736 223.183 136 220 136H116C112.817 136 109.765 134.736 107.515 132.485C105.264 130.235 104 127.183 104 124V24H24V68C24 71.1826 22.7357 74.2348 20.4853 76.4853C18.2348 78.7357 15.1826 80 12 80C8.8174 80 5.76516 78.7357 3.51472 76.4853C1.26428 74.2348 0 71.1826 0 68V12C0 8.8174 1.26428 5.76515 3.51472 3.51472C5.76516 1.26428 8.8174 0 12 0H116C119.183 0 122.235 1.26428 124.485 3.51472C126.736 5.76515 128 8.8174 128 12V112H208V68C208 64.8174 209.264 61.7652 211.515 59.5147C213.765 57.2643 216.817 56 220 56C223.183 56 226.235 57.2643 228.485 59.5147C230.736 61.7652 232 64.8174 232 68Z" fill="white"/>
</svg>
