<svg viewBox="0 0 91 53" fill="none" xmlns="http://www.w3.org/2000/svg"><path d="M41.293 6.706v-.5H8.913V19c0 .691-.384 1.405-1.168 1.964-.786.56-1.877.889-3.038.889-1.16 0-2.253-.33-3.038-.89C.885 20.406.5 19.692.5 19V3.353c0-.691.385-1.406 1.169-1.964C2.454.83 3.546.5 4.707.5H45.5c1.16 0 2.253.33 3.038.89.784.557 1.169 1.272 1.169 1.963v28.441H82.087V19c0-.691.384-1.405 1.168-1.964.785-.56 1.877-.889 3.038-.889 1.16 0 2.253.33 3.038.89.784.558 1.169 1.272 1.169 1.963v15.647c0 .691-.385 1.406-1.169 1.964-.785.56-1.877.889-3.038.889H45.5c-1.16 0-2.253-.33-3.038-.89-.784-.557-1.169-1.272-1.169-1.963V6.706Z" fill="url(#a)" stroke="#fff"/><path d="M3.075 51v-7.7h2.76l1.53 6.71h.198V43.3h1.43V51H6.232l-1.53-6.71h-.197V51h-1.43ZM12.974 51.154c-.543 0-1.023-.114-1.441-.341a2.535 2.535 0 0 1-.968-.979c-.228-.425-.341-.924-.341-1.496v-.132c0-.572.113-1.067.34-1.485a2.37 2.37 0 0 1 .958-.979c.41-.235.887-.352 1.43-.352.535 0 1 .121 1.397.363.396.235.704.565.924.99.22.418.33.906.33 1.463v.473h-3.971c.014.374.154.678.418.913s.586.352.968.352c.388 0 .674-.084.858-.253a1.78 1.78 0 0 0 .418-.561l1.133.594c-.103.19-.253.4-.451.627-.19.22-.448.41-.77.572-.323.154-.734.231-1.232.231Zm-1.331-3.509h2.552a1.08 1.08 0 0 0-.385-.759c-.22-.19-.51-.286-.87-.286-.373 0-.67.095-.89.286a1.23 1.23 0 0 0-.407.759ZM17.255 51l-.77-5.456h1.375l.484 4.521h.198l.704-4.521h2.222l.704 4.521h.198l.484-4.521h1.375L23.459 51h-2.3l-.703-4.521h-.198L19.554 51h-2.3ZM28.741 51l-1.012-7.7h1.441l.748 6.688h.198l.968-6.688h2.508l.968 6.688h.198l.748-6.688h1.441L35.935 51h-2.508l-.99-6.842h-.198L31.25 51h-2.508ZM39.682 51.154a2.63 2.63 0 0 1-1.045-.198 1.792 1.792 0 0 1-.737-.594c-.176-.264-.264-.583-.264-.957s.088-.686.264-.935c.183-.257.432-.447.748-.572.322-.132.69-.198 1.1-.198h1.496v-.308a.848.848 0 0 0-.242-.627c-.162-.169-.418-.253-.77-.253-.345 0-.602.08-.77.242a1.093 1.093 0 0 0-.33.605l-1.276-.429c.088-.279.227-.532.418-.759.198-.235.458-.422.78-.561.33-.147.73-.22 1.2-.22.718 0 1.287.18 1.705.539.418.36.627.88.627 1.562v2.035c0 .22.102.33.308.33h.44V51h-.924c-.272 0-.495-.066-.671-.198a.627.627 0 0 1-.264-.528v-.011h-.21c-.029.088-.095.205-.197.352-.103.14-.264.264-.484.374-.22.11-.52.165-.902.165Zm.242-1.122c.388 0 .704-.106.946-.319.25-.22.374-.51.374-.869v-.11h-1.397c-.257 0-.459.055-.605.165a.544.544 0 0 0-.22.462c0 .198.077.36.23.484.155.125.378.187.672.187ZM45.18 51l-1.738-5.456h1.474l1.265 4.444h.198l1.265-4.444h1.474L47.38 51h-2.2ZM52.398 51.154c-.543 0-1.023-.114-1.441-.341a2.534 2.534 0 0 1-.968-.979c-.228-.425-.341-.924-.341-1.496v-.132c0-.572.113-1.067.34-1.485.228-.425.547-.752.958-.979.41-.235.887-.352 1.43-.352.535 0 1 .121 1.397.363.396.235.704.565.924.99.22.418.33.906.33 1.463v.473h-3.971c.014.374.154.678.418.913s.586.352.968.352c.388 0 .674-.084.858-.253.183-.169.322-.356.418-.561l1.133.594c-.103.19-.253.4-.451.627-.191.22-.448.41-.77.572-.323.154-.734.231-1.232.231Zm-1.331-3.509h2.552a1.08 1.08 0 0 0-.385-.759c-.22-.19-.51-.286-.87-.286-.373 0-.67.095-.89.286a1.23 1.23 0 0 0-.407.759ZM61.65 51.154c-.544 0-1.031-.11-1.464-.33a2.474 2.474 0 0 1-1.023-.957c-.25-.418-.374-.92-.374-1.507v-.176c0-.587.125-1.089.374-1.507.25-.418.59-.737 1.023-.957.433-.22.92-.33 1.463-.33s1.03.11 1.463.33c.433.22.774.539 1.023.957.25.418.374.92.374 1.507v.176c0 .587-.124 1.089-.374 1.507-.25.418-.59.737-1.023.957-.433.22-.92.33-1.463.33Zm0-1.232c.425 0 .776-.136 1.055-.407.279-.279.418-.675.418-1.188v-.11c0-.513-.14-.906-.418-1.177-.271-.279-.623-.418-1.056-.418-.425 0-.777.14-1.056.418-.279.271-.418.664-.418 1.177v.11c0 .513.14.91.418 1.188.279.271.63.407 1.056.407ZM66.519 51v-4.312h-1.386v-1.144h1.386v-1.012c0-.374.11-.671.33-.891.227-.227.52-.341.88-.341h1.43v1.144h-.946c-.206 0-.308.11-.308.33v.77h1.43v1.144h-1.43V51h-1.386ZM72.5 51l2.024-7.7h2.53l2.024 7.7h-1.496l-.418-1.694h-2.75L73.996 51H72.5Zm2.255-3.036h2.068l-.935-3.751h-.198l-.935 3.751ZM80.043 51v-5.456h1.364v.616h.198a.876.876 0 0 1 .396-.484c.191-.103.411-.154.66-.154h.66v1.232h-.682c-.352 0-.641.095-.869.286-.227.183-.34.47-.34.858V51h-1.387ZM86.495 51c-.36 0-.653-.11-.88-.33-.22-.227-.33-.528-.33-.902v-3.08H83.92v-1.144h1.364V43.85h1.386v1.694h1.496v1.144H86.67v2.838c0 .22.102.33.308.33h1.056V51h-1.54Z" fill="#BF2585"/><path fill-rule="evenodd" clip-rule="evenodd" d="M2.075 52v-9.7h7.918v3.467c.279-.366.627-.668 1.038-.897.582-.33 1.232-.48 1.92-.48.689 0 1.339.157 1.913.506.212.126.406.272.58.435l-.11-.787H25.38L24.328 52h-7.942l-.22-1.563a5.077 5.077 0 0 1-.436.57c-.295.34-.665.604-1.077.81l-.008.005-.008.003c-.5.239-1.07.329-1.663.329-.686 0-1.335-.145-1.919-.463l-.01-.005-.008-.005a3.518 3.518 0 0 1-1.044-.904V52H2.075Zm2.43-7.71h.198L6.232 51h2.76v-7.7h-1.43v6.71h-.197l-1.53-6.71h-2.76V51h1.43v-6.71Zm6.06 2.431c-.228.418-.341.913-.341 1.485v.132c0 .572.113 1.07.34 1.496.235.418.558.744.969.979.418.227.898.341 1.44.341.5 0 .91-.077 1.233-.231.234-.117.433-.25.597-.397.063-.056.12-.114.173-.175.198-.227.348-.436.45-.627l-1.132-.594a1.835 1.835 0 0 1-.405.549l-.013.012c-.184.169-.47.253-.858.253a1.421 1.421 0 0 1-.968-.352 1.234 1.234 0 0 1-.418-.913h3.97v-.473c0-.183-.011-.359-.035-.527a2.85 2.85 0 0 0-.294-.936 2.411 2.411 0 0 0-.924-.99c-.396-.242-.862-.363-1.397-.363-.543 0-1.02.117-1.43.352a2.37 2.37 0 0 0-.957.979Zm2.77-.076a1.633 1.633 0 0 0-.394-.045 1.74 1.74 0 0 0-.409.045c-.189.046-.35.126-.482.241a1.23 1.23 0 0 0-.407.759h2.552a1.08 1.08 0 0 0-.385-.759 1.127 1.127 0 0 0-.475-.241Zm6.923-.166h.198L21.16 51h2.299l.77-5.456h-1.375l-.484 4.521h-.198l-.704-4.521h-2.222l-.704 4.521h-.198l-.484-4.521h-1.375l.77 5.456h2.299l.704-4.521ZM27.864 52l-1.275-9.7h3.476l.067.6.087-.6h4.239l.087.6.067-.6h3.475l-.398 3.033c.276-.272.604-.483.965-.639.488-.216 1.032-.304 1.6-.304.696 0 1.355.138 1.92.47l-.1-.316h3.597l.609 2.14.608-2.14h3.598l-.12.378.09-.052c.58-.33 1.231-.48 1.92-.48.688 0 1.338.157 1.912.506.56.334.994.803 1.295 1.384.307.585.444 1.237.444 1.926v1.005l.183.097-.183.341v.03h-.017l-.279.52a4.52 4.52 0 0 1-.577.809 3.45 3.45 0 0 1-1.077.81l-.008.004-.009.003c-.5.239-1.07.329-1.662.329-.686 0-1.335-.145-1.92-.463l-.009-.005-.009-.005a3.534 3.534 0 0 1-1.343-1.357l-.005-.01-.005-.009a3.685 3.685 0 0 1-.26-.616L48.11 52h-3.662l-.115-.36V52H42.41c-.37 0-.75-.078-1.093-.28a2.94 2.94 0 0 1-.286.163c-.414.208-.89.271-1.35.271-.502 0-.987-.086-1.438-.279l-.01-.004-.008-.004a2.791 2.791 0 0 1-1.139-.924l-.01-.013-.008-.013a2.48 2.48 0 0 1-.093-.151L36.812 52h-4.25l-.224-1.543L32.115 52h-4.25Zm4.375-7.842h.198l.99 6.842h2.508l1.012-7.7h-1.44l-.749 6.688h-.198l-.968-6.688h-2.508l-.968 6.688h-.198L29.17 43.3h-1.44L28.74 51h2.508l.99-6.842Zm6.009 3.959c-.135.099-.25.217-.348.353-.176.25-.264.561-.264.935s.088.693.264.957c.183.257.429.455.737.594a2.63 2.63 0 0 0 1.045.198c.381 0 .682-.055.902-.165a2.02 2.02 0 0 0 .13-.07 1.18 1.18 0 0 0 .354-.304c.098-.14.163-.254.194-.341l.004-.011h.209v.011a.825.825 0 0 0 .013.14v.003a.632.632 0 0 0 .25.385c.09.066.19.116.303.15a1.25 1.25 0 0 0 .369.048h.924v-1.144h-.44c-.206 0-.308-.11-.308-.33v-2.035c0-.682-.21-1.203-.627-1.562-.418-.36-.987-.539-1.705-.539-.47 0-.87.073-1.2.22-.266.115-.49.262-.67.442a2.204 2.204 0 0 0-.528.878l1.276.429a1.24 1.24 0 0 1 .1-.298 1.024 1.024 0 0 1 .286-.355c.168-.13.405-.194.714-.194.303 0 .536.063.697.188a.848.848 0 0 1 .314.692v.308h-1.495c-.273 0-.526.03-.76.087a2.49 2.49 0 0 0-.34.111 1.766 1.766 0 0 0-.4.219Zm2.03 1.882a1.23 1.23 0 0 0 .592-.286c.144-.127.246-.277.307-.45.044-.127.067-.267.067-.419v-.11h-1.397c-.257 0-.459.055-.605.165a.544.544 0 0 0-.22.462c0 .198.077.36.23.484.155.125.378.187.672.187.125 0 .243-.011.354-.033ZM45.18 51h2.2l1.738-5.456h-1.474l-1.265 4.444h-.198l-1.265-4.444h-1.474L45.18 51Zm4.809-4.279c-.228.418-.341.913-.341 1.485v.132c0 .572.113 1.07.34 1.496.235.418.558.744.969.979.418.227.898.341 1.44.341.5 0 .91-.077 1.233-.231.233-.117.432-.25.597-.397.063-.056.12-.114.173-.175.198-.227.348-.436.45-.627l-1.132-.594a1.835 1.835 0 0 1-.405.549l-.013.012c-.184.169-.47.253-.858.253a1.421 1.421 0 0 1-.968-.352 1.233 1.233 0 0 1-.418-.913h3.97v-.473c0-.183-.011-.359-.035-.527a2.85 2.85 0 0 0-.294-.936 2.411 2.411 0 0 0-.924-.99c-.396-.242-.862-.363-1.397-.363-.543 0-1.02.117-1.43.352-.411.227-.73.554-.957.979Zm2.77-.076a1.633 1.633 0 0 0-.394-.045 1.74 1.74 0 0 0-.41.045c-.188.046-.349.126-.481.241a1.23 1.23 0 0 0-.407.759h2.552a1.08 1.08 0 0 0-.385-.759 1.128 1.128 0 0 0-.475-.241Zm7.834.395c-.279.271-.418.664-.418 1.177v.11c0 .513.14.91.418 1.188.279.271.63.407 1.056.407.425 0 .777-.136 1.056-.407.279-.279.418-.675.418-1.188v-.11c0-.513-.14-.906-.418-1.177-.271-.279-.623-.418-1.056-.418-.425 0-.777.14-1.056.418Zm1.41 1.764c.04-.043.12-.156.12-.477v-.11c0-.333-.086-.432-.115-.46l-.01-.01-.01-.01c-.06-.062-.143-.115-.339-.115-.183 0-.273.05-.349.125l-.01.01c-.028.028-.115.127-.115.46v.11c0 .32.08.434.121.477.073.069.166.118.353.118.187 0 .28-.05.353-.118ZM65.518 52v-4.312h-.035c.017.163.025.328.025.496v.176c0 .73-.156 1.417-.515 2.02a3.475 3.475 0 0 1-1.429 1.335 4.18 4.18 0 0 1-1.916.439 4.18 4.18 0 0 1-1.916-.439 3.475 3.475 0 0 1-1.429-1.336c-.359-.602-.515-1.29-.515-2.019v-.176c0-.73.156-1.417.515-2.02.346-.579.828-1.03 1.429-1.335a4.18 4.18 0 0 1 1.916-.439c.681 0 1.328.14 1.916.439.203.103.393.222.568.358v-.643h1.386v-.012c0-.582.178-1.154.622-1.598.438-.438.997-.634 1.588-.634h2.43v2.244h.176v3.144h-1.43V52h-3.386Zm2.386-5.312h1.43v-1.144h-1.43v-.77c0-.099.02-.176.062-.23.05-.067.133-.1.246-.1h.946V43.3h-1.43c-.36 0-.653.114-.88.341-.22.22-.33.517-.33.891v1.012h-1.386v1.144h1.386V51h1.386v-4.312Zm-3.772-.015a2.473 2.473 0 0 0-1.02-.953c-.434-.22-.921-.33-1.464-.33-.543 0-1.03.11-1.463.33-.432.22-.773.539-1.023.957-.25.418-.374.92-.374 1.507v.176c0 .587.125 1.089.374 1.507.25.418.59.737 1.023.957.433.22.92.33 1.463.33s1.03-.11 1.463-.33c.433-.22.774-.539 1.023-.957.25-.418.374-.92.374-1.507v-.176c0-.173-.01-.338-.032-.496a2.659 2.659 0 0 0-.335-1l-.007-.011-.002-.004ZM71.203 52l2.55-9.7h4.072l1.218 4.636v-2.392h3.275a2.65 2.65 0 0 1 .343-.022h1.624V42.85h3.386v1.694h1.496v3.144H87.67v1.168h1.364V52h-2.54c-.581 0-1.136-.186-1.576-.611l-.011-.012-.012-.012c-.433-.447-.611-1.014-.611-1.597v-2.014h-1.646a.425.425 0 0 0-.202.036.635.635 0 0 0-.008.108V52H76.8l-.419-1.694h-1.183L74.779 52h-3.576Zm3.21-2.694h2.75L77.583 51h1.496l-2.024-7.7h-2.53L72.5 51h1.496l.418-1.694Zm1.475-5.093h-.198l-.935 3.751h2.068l-.935-3.751ZM81.429 51v-3.102c0-.312.074-.558.22-.738a.817.817 0 0 1 .121-.12c.185-.155.412-.247.68-.276.06-.007.124-.01.19-.01h.681v-1.232h-.66c-.088 0-.173.006-.254.02l-.016.002a1.246 1.246 0 0 0-.39.132.822.822 0 0 0-.268.24 1.006 1.006 0 0 0-.128.244h-.198v-.616h-1.364V51h1.386Zm2.492-5.456v1.144h1.364v3.08c0 .374.11.675.33.902.227.22.52.33.88.33h1.54v-1.144h-1.056c-.206 0-.308-.11-.308-.33v-2.838h1.496v-1.144H86.67V43.85h-1.386v1.694H83.92Z" fill="#fff"/><path fill="#D64E7C" stroke="#fff" d="M17.5 14.5h15v15h-15z"/><path fill="#F88D6E" stroke="#fff" d="M59.5 6.5h15v15h-15z"/><defs><linearGradient id="a" x1="45.5" y1="0" x2="45.5" y2="38" gradientUnits="userSpaceOnUse"><stop stop-color="#B91A87"/><stop offset="1" stop-color="#FD966B"/></linearGradient></defs></svg>