<svg xmlns="http://www.w3.org/2000/svg"><style>:root svg:not(:target){display:none}</style><svg id="facebook" viewBox="0 0 48 48"><path d="M48 24.147C48 10.81 37.254-.003 24-.003 10.74 0-.006 10.81-.006 24.15c0 12.051 8.778 22.041 20.25 23.853V31.128h-6.09V24.15h6.096v-5.325c0-6.05 3.585-9.393 9.066-9.393 2.628 0 5.373.471 5.373.471v5.94h-3.027c-2.979 0-3.909 1.863-3.909 3.774v4.53h6.654l-1.062 6.978H27.75V48C39.222 46.188 48 36.198 48 24.147Z"></path></svg><svg viewBox="0 0 41 41" id="icon-burger"><g clip-path="url(#icon-burger_0)"><path d="M34.167 29.896a2.562 2.562 0 0 1 .246 5.113l-.246.012H6.833a2.562 2.562 0 0 1-.246-5.113l.246-.012h27.334Zm0-11.959a2.563 2.563 0 0 1 0 5.125H6.833a2.563 2.563 0 0 1 0-5.125h27.334Zm0-11.958a2.562 2.562 0 1 1 0 5.125H6.833a2.562 2.562 0 0 1 0-5.125h27.334Z" fill="#55228B"></path></g><defs><clipPath id="icon-burger_0"><path fill="#fff" d="M0 0h41v41H0z"></path></clipPath></defs></svg><svg id="instagram" viewBox="0 0 48 48"><path d="M26.056 4.002c1.46-.005 2.919.01 4.378.044l.388.014c.448.016.89.036 1.424.06 2.128.1 3.58.436 4.854.93 1.32.508 2.432 1.196 3.544 2.308A9.817 9.817 0 0 1 42.95 10.9c.494 1.274.83 2.729.93 4.857.024.531.044.976.06 1.423l.012.389c.035 1.458.05 2.917.046 4.376L44 23.436v2.62c.005 1.46-.01 2.92-.046 4.378l-.012.389c-.016.447-.036.89-.06 1.423-.1 2.128-.44 3.58-.932 4.854a9.768 9.768 0 0 1-2.306 3.544A9.83 9.83 0 0 1 37.1 42.95c-1.274.494-2.726.83-4.854.93-.534.024-.976.044-1.424.06l-.388.013c-1.46.035-2.919.05-4.378.045l-1.492.003h-2.618c-1.46.004-2.919-.01-4.378-.046l-.388-.012c-.475-.018-.95-.038-1.424-.06-2.128-.1-3.58-.44-4.856-.933a9.78 9.78 0 0 1-3.542-2.306A9.809 9.809 0 0 1 5.05 37.1c-.494-1.273-.83-2.726-.93-4.854-.022-.474-.042-.949-.06-1.424l-.01-.387c-.037-1.46-.054-2.919-.05-4.378v-4.112c-.006-1.46.01-2.918.044-4.377l.014-.388c.016-.447.036-.892.06-1.423.1-2.13.436-3.58.93-4.857A9.76 9.76 0 0 1 7.36 7.36a9.794 9.794 0 0 1 3.54-2.31c1.276-.494 2.726-.83 4.856-.93l1.424-.06.388-.01c1.458-.036 2.917-.053 4.376-.05l4.112.002Zm-2.056 10A9.999 9.999 0 1 0 24 34a10 10 0 0 0 0-19.998Zm0 4A6 6 0 1 1 24.002 30a6 6 0 0 1 0-12l-.002.003Zm10.5-7a2.5 2.5 0 0 0 0 4.996 2.5 2.5 0 0 0 0-5v.005Z"></path></svg><svg id="pajamas_podcast" viewBox="0 0 48 48"><path fill-rule="evenodd" clip-rule="evenodd" d="M13.191 7.77a19.5 19.5 0 0 1 24.681 29.933 2.25 2.25 0 0 0 3.201 3.162 24 24 0 1 0-34.146 0 2.25 2.25 0 1 0 3.201-3.162A19.5 19.5 0 0 1 13.191 7.77ZM24 13.5a10.5 10.5 0 0 1 7.5 17.846 2.253 2.253 0 0 0 .768 3.664 2.251 2.251 0 0 0 2.448-.514 14.999 14.999 0 1 0-21.432 0A2.25 2.25 0 0 0 16.5 31.35 10.5 10.5 0 0 1 24 13.5ZM30 24a6 6 0 1 1-12 0 6 6 0 0 1 12 0Zm-3.75 12.75a2.25 2.25 0 1 0-4.5 0v9a2.25 2.25 0 1 0 4.5 0v-9Z"></path></svg><svg id="pin" viewBox="0 0 45 45"><path d="M18 19.488a4.5 4.5 0 1 1 9 0 4.5 4.5 0 0 1-9 0Z" fill="currentColor"></path><path fill-rule="evenodd" clip-rule="evenodd" d="M3 19.488A19.497 19.497 0 0 1 22.5 0C33.267 0 42 8.727 42 19.488c0 8.022-4.014 14.379-8.316 18.675a32.594 32.594 0 0 1-6.345 4.962c-.966.57-1.869 1.02-2.655 1.326-.741.294-1.518.522-2.184.522-.666 0-1.443-.228-2.184-.522a19.359 19.359 0 0 1-2.655-1.326 32.605 32.605 0 0 1-6.345-4.962C7.014 33.867 3 27.51 3 19.488Zm19.5-7.497a7.5 7.5 0 1 0 0 15 7.5 7.5 0 0 0 0-15Z" fill="currentColor"></path></svg><svg fill="none" id="preloader" viewBox="0 0 232 136"><path d="M232 68v56c0 3.183-1.264 6.235-3.515 8.485A11.996 11.996 0 0 1 220 136H116a11.996 11.996 0 0 1-8.485-3.515A11.996 11.996 0 0 1 104 124V24H24v44a12 12 0 0 1-24 0V12A12 12 0 0 1 12 0h104a11.998 11.998 0 0 1 12 12v100h80V68a11.998 11.998 0 0 1 12-12 11.998 11.998 0 0 1 12 12Z" fill="#fff"></path></svg><svg fill="currentColor" id="swiper-arrow" viewBox="0 0 62 16"><path d="M45.237 2.56a1.465 1.465 0 0 1-.42-1.049 1.47 1.47 0 0 1 .458-1.034 1.6 1.6 0 0 1 1.08-.44c.406-.006.798.138 1.095.403l6.784 6.5c.294.281.458.662.458 1.06s-.164.779-.458 1.06l-6.784 6.5c-.297.265-.69.41-1.095.402a1.6 1.6 0 0 1-1.08-.439 1.47 1.47 0 0 1-.458-1.034 1.465 1.465 0 0 1 .42-1.049L50.915 8l-5.678-5.44ZM60.434 16c.416 0 .814-.158 1.107-.44.294-.28.459-.662.459-1.06v-13c0-.398-.165-.78-.459-1.06A1.601 1.601 0 0 0 60.434 0a1.6 1.6 0 0 0-1.107.44 1.469 1.469 0 0 0-.458 1.06v13c0 .828.701 1.5 1.565 1.5ZM0 8.343c0-1.136.961-2.057 2.147-2.057h35.787c1.186 0 2.147.92 2.147 2.057 0 1.136-.962 2.057-2.147 2.057H2.147C.961 10.4 0 9.479 0 8.343Z"></path></svg><svg id="twitter" viewBox="0 0 48 48"><path d="M24 0c13.269 0 24 10.731 24 24S37.269 48 24 48 0 37.269 0 24 10.731 0 24 0Zm-4.389 36.651c10.629 0 16.458-8.811 16.458-16.457v-.754a11.478 11.478 0 0 0 2.88-3.017c-1.029.446-2.16.754-3.326.926 1.2-.72 2.126-1.852 2.537-3.189a12.52 12.52 0 0 1-3.669 1.406 5.773 5.773 0 0 0-4.217-1.817c-3.188 0-5.794 2.605-5.794 5.794 0 .446.034.891.171 1.303A16.436 16.436 0 0 1 12.72 14.81c-.48.858-.789 1.852-.789 2.915a5.79 5.79 0 0 0 2.572 4.8c-.96 0-1.852-.275-2.606-.72v.068a5.812 5.812 0 0 0 4.629 5.692c-.48.137-.995.205-1.509.205-.377 0-.72-.034-1.097-.102.72 2.297 2.88 3.977 5.383 4.011a11.72 11.72 0 0 1-7.2 2.469c-.48 0-.926 0-1.372-.069a16.235 16.235 0 0 0 8.846 2.606"></path></svg></svg>