<svg width="45" height="45" viewBox="0 0 45 45"  xmlns="http://www.w3.org/2000/svg">
  <path d="M18 19.4883C18 18.2948 18.4741 17.1502 19.318 16.3063C20.1619 15.4624 21.3065 14.9883 22.5 14.9883C23.6935 14.9883 24.8381 15.4624 25.682 16.3063C26.5259 17.1502 27 18.2948 27 19.4883C27 20.6818 26.5259 21.8263 25.682 22.6703C24.8381 23.5142 23.6935 23.9883 22.5 23.9883C21.3065 23.9883 20.1619 23.5142 19.318 22.6703C18.4741 21.8263 18 20.6818 18 19.4883Z" fill="currentColor"/>
  <path fill-rule="evenodd" clip-rule="evenodd" d="M3 19.488C3.00239 14.3181 5.05799 9.36083 8.71478 5.7063C12.3716 2.05176 17.3301 -0.000795809 22.5 2.31459e-07C33.267 2.31459e-07 42 8.727 42 19.488C42 27.51 37.986 33.867 33.684 38.163C31.7823 40.073 29.651 41.7397 27.339 43.125C26.373 43.695 25.47 44.145 24.684 44.451C23.943 44.745 23.166 44.973 22.5 44.973C21.834 44.973 21.057 44.745 20.316 44.451C19.3984 44.0776 18.5108 43.6343 17.661 43.125C15.349 41.7396 13.2178 40.0729 11.316 38.163C7.014 33.867 3 27.51 3 19.488ZM22.5 11.991C20.5109 11.991 18.6032 12.7812 17.1967 14.1877C15.7902 15.5942 15 17.5019 15 19.491C15 21.4801 15.7902 23.3878 17.1967 24.7943C18.6032 26.2008 20.5109 26.991 22.5 26.991C24.4891 26.991 26.3968 26.2008 27.8033 24.7943C29.2098 23.3878 30 21.4801 30 19.491C30 17.5019 29.2098 15.5942 27.8033 14.1877C26.3968 12.7812 24.4891 11.991 22.5 11.991Z" fill="currentColor"/>
</svg>
