<svg width="62" height="16" viewBox="0 0 62 16" fill="currentColor" xmlns="http://www.w3.org/2000/svg">
  <path d="M45.237 2.56C44.9605 2.27565 44.8099 1.89956 44.8171 1.51095C44.8242 1.12235 44.9885 0.751583 45.2754 0.476757C45.5623 0.201931 45.9493 0.0445065 46.3549 0.0376501C46.7605 0.0307937 47.153 0.17504 47.4498 0.44L54.2343 6.94C54.5275 7.22125 54.6922 7.6025 54.6922 8C54.6922 8.3975 54.5275 8.77875 54.2343 9.06L47.4498 15.56C47.153 15.825 46.7605 15.9692 46.3549 15.9624C45.9493 15.9555 45.5623 15.7981 45.2754 15.5232C44.9885 15.2484 44.8242 14.8776 44.8171 14.489C44.8099 14.1004 44.9605 13.7243 45.237 13.44L50.9151 8L45.237 2.56ZM60.4343 16C60.8496 16 61.2478 15.842 61.5414 15.5607C61.835 15.2794 62 14.8978 62 14.5V1.5C62 1.10218 61.835 0.720644 61.5414 0.43934C61.2478 0.158035 60.8496 0 60.4343 0C60.0191 0 59.6209 0.158035 59.3273 0.43934C59.0336 0.720644 58.8687 1.10218 58.8687 1.5V14.5C58.8687 15.328 59.5701 16 60.4343 16Z"/>
  <path d="M0 8.34286C0 7.20673 0.961328 6.28571 2.14719 6.28571H37.9336C39.1195 6.28571 40.0808 7.20673 40.0808 8.34286C40.0808 9.47898 39.1195 10.4 37.9336 10.4H2.14719C0.961327 10.4 0 9.47898 0 8.34286Z"/>
</svg>
