<svg viewBox="0 0 91 53" fill="none" xmlns="http://www.w3.org/2000/svg">
<path d="M41.2931 6.70588V6.20588H40.7931H9.41379H8.91379V6.70588V19C8.91379 19.6914 8.52862 20.4055 7.74508 20.9636C6.95947 21.5233 5.8676 21.8529 4.7069 21.8529C3.5462 21.8529 2.45432 21.5233 1.66871 20.9636C0.885173 20.4055 0.5 19.6914 0.5 19V3.35294C0.5 2.66158 0.885174 1.94745 1.66871 1.38929C2.45432 0.829668 3.5462 0.5 4.7069 0.5H45.5C46.6607 0.5 47.7526 0.829668 48.5382 1.38929C49.3217 1.94745 49.7069 2.66158 49.7069 3.35294V31.2941V31.7941H50.2069H81.5862H82.0862V31.2941V19C82.0862 18.3086 82.4714 17.5945 83.2549 17.0364C84.0405 16.4767 85.1324 16.1471 86.2931 16.1471C87.4538 16.1471 88.5457 16.4767 89.3313 17.0364C90.1148 17.5945 90.5 18.3086 90.5 19V34.6471C90.5 35.3384 90.1148 36.0526 89.3313 36.6107C88.5457 37.1703 87.4538 37.5 86.2931 37.5H45.5C44.3393 37.5 43.2474 37.1703 42.4618 36.6107C41.6783 36.0526 41.2931 35.3384 41.2931 34.6471V6.70588Z" fill="url(#paint0_linear_401_3)" stroke="white"/>
<path d="M3.07458 51V43.3H5.83558L7.36459 50.01H7.56259V43.3H8.99259V51H6.23159L4.70259 44.29H4.50459V51H3.07458Z" fill="#BF2585"/>
<path d="M12.9737 51.154C12.4311 51.154 11.9507 51.0403 11.5327 50.813C11.1221 50.5783 10.7994 50.252 10.5647 49.834C10.3374 49.4087 10.2237 48.91 10.2237 48.338V48.206C10.2237 47.634 10.3374 47.139 10.5647 46.721C10.7921 46.2957 11.1111 45.9693 11.5217 45.742C11.9324 45.5073 12.4091 45.39 12.9517 45.39C13.4871 45.39 13.9527 45.511 14.3487 45.753C14.7447 45.9877 15.0527 46.3177 15.2727 46.743C15.4927 47.161 15.6027 47.6487 15.6027 48.206V48.679H11.6317C11.6464 49.053 11.7857 49.3573 12.0497 49.592C12.3137 49.8267 12.6364 49.944 13.0177 49.944C13.4064 49.944 13.6924 49.8597 13.8757 49.691C14.0591 49.5223 14.1984 49.3353 14.2937 49.13L15.4267 49.724C15.3241 49.9147 15.1737 50.1237 14.9757 50.351C14.7851 50.571 14.5284 50.7617 14.2057 50.923C13.8831 51.077 13.4724 51.154 12.9737 51.154ZM11.6427 47.645H14.1947C14.1654 47.3297 14.0371 47.0767 13.8097 46.886C13.5897 46.6953 13.3001 46.6 12.9407 46.6C12.5667 46.6 12.2697 46.6953 12.0497 46.886C11.8297 47.0767 11.6941 47.3297 11.6427 47.645Z" fill="#BF2585"/>
<path d="M17.2549 51L16.4849 45.544H17.8599L18.3439 50.065H18.5419L19.2459 45.544H21.4679L22.1719 50.065H22.3699L22.8539 45.544H24.2289L23.4589 51H21.1599L20.4559 46.479H20.2579L19.5539 51H17.2549Z" fill="#BF2585"/>
<path d="M28.7414 51L27.7294 43.3H29.1704L29.9184 49.988H30.1164L31.0844 43.3H33.5924L34.5604 49.988H34.7584L35.5064 43.3H36.9474L35.9354 51H33.4274L32.4374 44.158H32.2394L31.2494 51H28.7414Z" fill="#BF2585"/>
<path d="M39.6817 51.154C39.2931 51.154 38.9447 51.088 38.6367 50.956C38.3287 50.8167 38.0831 50.6187 37.8997 50.362C37.7237 50.098 37.6357 49.779 37.6357 49.405C37.6357 49.031 37.7237 48.7193 37.8997 48.47C38.0831 48.2133 38.3324 48.0227 38.6477 47.898C38.9704 47.766 39.3371 47.7 39.7477 47.7H41.2437V47.392C41.2437 47.1353 41.1631 46.9263 41.0017 46.765C40.8404 46.5963 40.5837 46.512 40.2317 46.512C39.8871 46.512 39.6304 46.5927 39.4617 46.754C39.2931 46.908 39.1831 47.1097 39.1317 47.359L37.8557 46.93C37.9437 46.6513 38.0831 46.3983 38.2737 46.171C38.4717 45.9363 38.7321 45.7493 39.0547 45.61C39.3847 45.4633 39.7844 45.39 40.2537 45.39C40.9724 45.39 41.5407 45.5697 41.9587 45.929C42.3767 46.2883 42.5857 46.809 42.5857 47.491V49.526C42.5857 49.746 42.6884 49.856 42.8937 49.856H43.3337V51H42.4097C42.1384 51 41.9147 50.934 41.7387 50.802C41.5627 50.67 41.4747 50.494 41.4747 50.274V50.263H41.2657C41.2364 50.351 41.1704 50.4683 41.0677 50.615C40.9651 50.7543 40.8037 50.879 40.5837 50.989C40.3637 51.099 40.0631 51.154 39.6817 51.154ZM39.9237 50.032C40.3124 50.032 40.6277 49.9257 40.8697 49.713C41.1191 49.493 41.2437 49.2033 41.2437 48.844V48.734H39.8467C39.5901 48.734 39.3884 48.789 39.2417 48.899C39.0951 49.009 39.0217 49.163 39.0217 49.361C39.0217 49.559 39.0987 49.7203 39.2527 49.845C39.4067 49.9697 39.6304 50.032 39.9237 50.032Z" fill="#BF2585"/>
<path d="M45.1796 51L43.4416 45.544H44.9156L46.1806 49.988H46.3786L47.6436 45.544H49.1176L47.3796 51H45.1796Z" fill="#BF2585"/>
<path d="M52.3976 51.154C51.8549 51.154 51.3746 51.0403 50.9566 50.813C50.5459 50.5783 50.2232 50.252 49.9886 49.834C49.7612 49.4087 49.6476 48.91 49.6476 48.338V48.206C49.6476 47.634 49.7612 47.139 49.9886 46.721C50.2159 46.2957 50.5349 45.9693 50.9456 45.742C51.3562 45.5073 51.8329 45.39 52.3756 45.39C52.9109 45.39 53.3766 45.511 53.7726 45.753C54.1686 45.9877 54.4766 46.3177 54.6966 46.743C54.9166 47.161 55.0266 47.6487 55.0266 48.206V48.679H51.0556C51.0702 49.053 51.2096 49.3573 51.4736 49.592C51.7376 49.8267 52.0602 49.944 52.4416 49.944C52.8302 49.944 53.1162 49.8597 53.2996 49.691C53.4829 49.5223 53.6222 49.3353 53.7176 49.13L54.8506 49.724C54.7479 49.9147 54.5976 50.1237 54.3996 50.351C54.2089 50.571 53.9522 50.7617 53.6296 50.923C53.3069 51.077 52.8962 51.154 52.3976 51.154ZM51.0666 47.645H53.6186C53.5892 47.3297 53.4609 47.0767 53.2336 46.886C53.0136 46.6953 52.7239 46.6 52.3646 46.6C51.9906 46.6 51.6936 46.6953 51.4736 46.886C51.2536 47.0767 51.1179 47.3297 51.0666 47.645Z" fill="#BF2585"/>
<path d="M61.6492 51.154C61.1065 51.154 60.6188 51.044 60.1862 50.824C59.7535 50.604 59.4125 50.285 59.1632 49.867C58.9138 49.449 58.7892 48.9467 58.7892 48.36V48.184C58.7892 47.5973 58.9138 47.095 59.1632 46.677C59.4125 46.259 59.7535 45.94 60.1862 45.72C60.6188 45.5 61.1065 45.39 61.6492 45.39C62.1918 45.39 62.6795 45.5 63.1122 45.72C63.5448 45.94 63.8858 46.259 64.1352 46.677C64.3845 47.095 64.5092 47.5973 64.5092 48.184V48.36C64.5092 48.9467 64.3845 49.449 64.1352 49.867C63.8858 50.285 63.5448 50.604 63.1122 50.824C62.6795 51.044 62.1918 51.154 61.6492 51.154ZM61.6492 49.922C62.0745 49.922 62.4265 49.7863 62.7052 49.515C62.9838 49.2363 63.1232 48.8403 63.1232 48.327V48.217C63.1232 47.7037 62.9838 47.3113 62.7052 47.04C62.4338 46.7613 62.0818 46.622 61.6492 46.622C61.2238 46.622 60.8718 46.7613 60.5932 47.04C60.3145 47.3113 60.1752 47.7037 60.1752 48.217V48.327C60.1752 48.8403 60.3145 49.2363 60.5932 49.515C60.8718 49.7863 61.2238 49.922 61.6492 49.922Z" fill="#BF2585"/>
<path d="M66.5186 51V46.688H65.1326V45.544H66.5186V44.532C66.5186 44.158 66.6286 43.861 66.8486 43.641C67.076 43.4137 67.3693 43.3 67.7286 43.3H69.1586V44.444H68.2126C68.0073 44.444 67.9046 44.554 67.9046 44.774V45.544H69.3346V46.688H67.9046V51H66.5186Z" fill="#BF2585"/>
<path d="M72.4997 51L74.5237 43.3H77.0537L79.0777 51H77.5817L77.1637 49.306H74.4137L73.9957 51H72.4997ZM74.7547 47.964H76.8227L75.8877 44.213H75.6897L74.7547 47.964Z" fill="#BF2585"/>
<path d="M80.0434 51V45.544H81.4074V46.16H81.6054C81.6861 45.94 81.8181 45.7787 82.0014 45.676C82.1921 45.5733 82.4121 45.522 82.6614 45.522H83.3214V46.754H82.6394C82.2874 46.754 81.9977 46.8493 81.7704 47.04C81.5431 47.2233 81.4294 47.5093 81.4294 47.898V51H80.0434Z" fill="#BF2585"/>
<path d="M86.4947 51C86.1354 51 85.842 50.89 85.6147 50.67C85.3947 50.4427 85.2847 50.142 85.2847 49.768V46.688H83.9207V45.544H85.2847V43.85H86.6707V45.544H88.1667V46.688H86.6707V49.526C86.6707 49.746 86.7734 49.856 86.9787 49.856H88.0347V51H86.4947Z" fill="#BF2585"/>
<path fill-rule="evenodd" clip-rule="evenodd" d="M2.07458 52V42.3H9.99259V45.7668C10.272 45.4011 10.6195 45.0995 11.0315 44.8704C11.6128 44.5397 12.2634 44.39 12.9517 44.39C13.64 44.39 14.2899 44.5467 14.8643 44.8961C15.076 45.0222 15.2697 45.1676 15.4449 45.3313L15.3338 44.544H25.3799L24.3277 52H16.3861L16.1655 50.4369C16.0403 50.6304 15.8926 50.8209 15.7298 51.0078C15.4354 51.3469 15.0652 51.6113 14.6529 51.8174L14.6447 51.8215L14.6365 51.8255C14.1371 52.0638 13.5663 52.154 12.9737 52.154C12.2879 52.154 11.6391 52.0092 11.055 51.6915L11.0457 51.6864L11.0366 51.6812C10.6256 51.4464 10.2763 51.1428 9.99259 50.7767V52H2.07458ZM4.50459 44.29H4.70259L6.23159 51H8.99259V43.3H7.56259V50.01H7.36459L5.83558 43.3H3.07458V51H4.50459V44.29ZM10.5647 46.721C10.3374 47.139 10.2237 47.634 10.2237 48.206V48.338C10.2237 48.91 10.3374 49.4087 10.5647 49.834C10.7994 50.252 11.1221 50.5783 11.5327 50.813C11.9507 51.0403 12.4311 51.154 12.9737 51.154C13.4724 51.154 13.8831 51.077 14.2057 50.923C14.4395 50.8061 14.6386 50.6738 14.8031 50.5261C14.8657 50.47 14.9232 50.4116 14.9757 50.351C15.1737 50.1237 15.3241 49.9147 15.4267 49.724L14.2937 49.13C14.2718 49.1772 14.2476 49.2234 14.2211 49.2686C14.1348 49.4156 14.024 49.5524 13.8887 49.679C13.8844 49.683 13.8801 49.687 13.8757 49.691C13.6924 49.8597 13.4064 49.944 13.0177 49.944C12.6869 49.944 12.4002 49.8557 12.1576 49.679C12.1206 49.652 12.0847 49.623 12.0497 49.592C11.7857 49.3573 11.6464 49.053 11.6317 48.679H15.6027V48.206C15.6027 48.0228 15.5908 47.8471 15.5671 47.679C15.5185 47.3356 15.4204 47.0236 15.2727 46.743C15.0527 46.3177 14.7447 45.9877 14.3487 45.753C13.9527 45.511 13.4871 45.39 12.9517 45.39C12.4091 45.39 11.9324 45.5073 11.5217 45.742C11.1111 45.9693 10.7921 46.2957 10.5647 46.721ZM13.3354 46.645C13.2148 46.615 13.0833 46.6 12.9407 46.6C12.7924 46.6 12.6561 46.615 12.532 46.645C12.3432 46.6906 12.1825 46.771 12.0497 46.886C11.8297 47.0767 11.6941 47.3297 11.6427 47.645H14.1947C14.1654 47.3297 14.0371 47.0767 13.8097 46.886C13.677 46.771 13.5189 46.6906 13.3354 46.645ZM20.2579 46.479H20.4559L21.1599 51H23.4589L24.2289 45.544H22.8539L22.3699 50.065H22.1719L21.4679 45.544H19.2459L18.5419 50.065H18.3439L17.8599 45.544H16.4849L17.2549 51H19.5539L20.2579 46.479ZM27.8642 52L26.5893 42.3H30.0648L30.1319 42.8999L30.2187 42.3H34.458L34.5449 42.8999L34.612 42.3H38.0874L37.6888 45.3327C37.9655 45.0608 38.2927 44.8504 38.6535 44.694C39.1423 44.4778 39.6865 44.39 40.2537 44.39C40.9496 44.39 41.6086 44.5283 42.1739 44.8592L42.0735 44.544H45.6706L46.2796 46.6832L46.8885 44.544H50.4856L50.3651 44.9223C50.3948 44.9046 50.4248 44.8873 50.4552 44.8704C51.0366 44.5397 51.6871 44.39 52.3756 44.39C53.0638 44.39 53.7137 44.5467 54.2881 44.8961C54.8482 45.2295 55.2818 45.6991 55.5831 46.2804C55.8901 46.865 56.0266 47.5168 56.0266 48.206V49.2114L56.2104 49.3078L56.0266 49.6493V49.679H56.0105L55.731 50.1981C55.5824 50.474 55.383 50.7445 55.1536 51.0078C54.8592 51.3469 54.489 51.6113 54.0768 51.8174L54.0686 51.8215L54.0603 51.8255C53.5609 52.0638 52.9901 52.154 52.3976 52.154C51.7117 52.154 51.0629 52.0092 50.4788 51.6915L50.4695 51.6864L50.4604 51.6812C49.8903 51.3554 49.4386 50.8972 49.1166 50.3235L49.1115 50.3145L49.1066 50.3054C49.0008 50.1074 48.9146 49.9016 48.8467 49.6891L48.1105 52H44.4486L44.3337 51.6393V52H42.4097C42.0391 52 41.6595 51.9218 41.3169 51.7206C41.223 51.7815 41.1268 51.8355 41.0309 51.8834C40.6165 52.0907 40.1411 52.154 39.6817 52.154C39.1791 52.154 38.6936 52.0683 38.2428 51.8751L38.2336 51.8712L38.2246 51.8671C37.7679 51.6605 37.3791 51.3536 37.086 50.9432L37.0766 50.9301L37.0677 50.9167C37.0346 50.8671 37.0037 50.8168 36.9747 50.7658L36.8125 52H32.5616L32.3384 50.4569L32.1151 52H27.8642ZM32.2394 44.158H32.4374L33.4274 51H35.9354L36.9474 43.3H35.5064L34.7584 49.988H34.5604L33.5924 43.3H31.0844L30.1164 49.988H29.9184L29.1704 43.3H27.7294L28.7414 51H31.2494L32.2394 44.158ZM38.2478 48.1168C38.1131 48.2159 37.9971 48.3336 37.8997 48.47C37.7237 48.7193 37.6357 49.031 37.6357 49.405C37.6357 49.779 37.7237 50.098 37.8997 50.362C38.0831 50.6187 38.3287 50.8167 38.6367 50.956C38.9447 51.088 39.2931 51.154 39.6817 51.154C40.0631 51.154 40.3637 51.099 40.5837 50.989C40.5969 50.9824 40.61 50.9757 40.6227 50.969C40.6542 50.9525 40.6844 50.9356 40.7134 50.9185C40.8683 50.8265 40.9864 50.7253 41.0677 50.615C41.1662 50.4743 41.2309 50.3607 41.2619 50.274C41.2633 50.2703 41.2645 50.2666 41.2657 50.263H41.4747V50.274C41.4747 50.2942 41.4755 50.314 41.4769 50.3334C41.479 50.3607 41.4826 50.3874 41.4876 50.4132C41.4878 50.4145 41.4881 50.4157 41.4883 50.4169C41.493 50.4402 41.4988 50.4629 41.5058 50.485C41.5455 50.6096 41.6231 50.7153 41.7387 50.802C41.8273 50.8684 41.9279 50.9181 42.0406 50.9511C42.1306 50.9775 42.2283 50.9932 42.3337 50.9982C42.3586 50.9994 42.384 51 42.4097 51H43.3337V49.856H42.8937C42.6884 49.856 42.5857 49.746 42.5857 49.526V47.491C42.5857 46.809 42.3767 46.2883 41.9587 45.929C41.5407 45.5697 40.9724 45.39 40.2537 45.39C39.7844 45.39 39.3847 45.4633 39.0547 45.61C38.7884 45.725 38.5646 45.8724 38.3832 46.0523C38.3448 46.0904 38.3083 46.13 38.2737 46.171C38.1011 46.3768 37.9706 46.6036 37.8822 46.8514C37.8729 46.8774 37.8641 46.9036 37.8557 46.93L39.1317 47.359C39.1541 47.2505 39.1875 47.1511 39.232 47.0607C39.2899 46.9432 39.3664 46.841 39.4617 46.754C39.4795 46.737 39.4983 46.7208 39.5181 46.7056C39.6856 46.5765 39.9234 46.512 40.2317 46.512C40.5352 46.512 40.7677 46.5747 40.9295 46.7C40.9554 46.72 40.9795 46.7417 41.0017 46.765C41.1631 46.9263 41.2437 47.1353 41.2437 47.392V47.7H39.7477C39.475 47.7 39.2216 47.7291 38.9877 47.7873C38.8694 47.8168 38.7561 47.8537 38.6477 47.898C38.4999 47.9564 38.3666 48.0294 38.2478 48.1168ZM40.2778 49.9986C40.3164 49.9908 40.3539 49.9817 40.3906 49.9713C40.5627 49.9221 40.7143 49.843 40.8452 49.734C40.8534 49.7271 40.8616 49.7201 40.8697 49.713C41.0135 49.5861 41.1158 49.4361 41.1767 49.263C41.2214 49.1358 41.2437 48.9961 41.2437 48.844V48.734H39.8467C39.5901 48.734 39.3884 48.789 39.2417 48.899C39.0951 49.009 39.0217 49.163 39.0217 49.361C39.0217 49.559 39.0987 49.7203 39.2527 49.845C39.4067 49.9697 39.6304 50.032 39.9237 50.032C40.0494 50.032 40.1675 50.0209 40.2778 49.9986ZM45.1796 51H47.3796L49.1176 45.544H47.6436L46.3786 49.988H46.1806L44.9156 45.544H43.4416L45.1796 51ZM49.9886 46.721C49.7612 47.139 49.6476 47.634 49.6476 48.206V48.338C49.6476 48.91 49.7612 49.4087 49.9886 49.834C50.2232 50.252 50.5459 50.5783 50.9566 50.813C51.3746 51.0403 51.8549 51.154 52.3976 51.154C52.8962 51.154 53.3069 51.077 53.6296 50.923C53.8633 50.8061 54.0625 50.6738 54.2269 50.5261C54.2895 50.47 54.347 50.4116 54.3996 50.351C54.5976 50.1237 54.7479 49.9147 54.8506 49.724L53.7176 49.13C53.6956 49.1772 53.6714 49.2234 53.6449 49.2686C53.5586 49.4156 53.4478 49.5524 53.3125 49.679C53.3082 49.683 53.3039 49.687 53.2996 49.691C53.1162 49.8597 52.8302 49.944 52.4416 49.944C52.1107 49.944 51.824 49.8557 51.5814 49.679C51.5445 49.652 51.5085 49.623 51.4736 49.592C51.2096 49.3573 51.0702 49.053 51.0556 48.679H55.0266V48.206C55.0266 48.0228 55.0147 47.8471 54.9909 47.679C54.9424 47.3356 54.8442 47.0236 54.6966 46.743C54.4766 46.3177 54.1686 45.9877 53.7726 45.753C53.3766 45.511 52.9109 45.39 52.3756 45.39C51.8329 45.39 51.3562 45.5073 50.9456 45.742C50.5349 45.9693 50.2159 46.2957 49.9886 46.721ZM52.7593 46.645C52.6387 46.615 52.5071 46.6 52.3646 46.6C52.2162 46.6 52.08 46.615 51.9558 46.645C51.7671 46.6906 51.6063 46.771 51.4736 46.886C51.2536 47.0767 51.1179 47.3297 51.0666 47.645H53.6186C53.5892 47.3297 53.4609 47.0767 53.2336 46.886C53.1008 46.771 52.9427 46.6906 52.7593 46.645ZM60.5932 47.04C60.3145 47.3113 60.1752 47.7037 60.1752 48.217V48.327C60.1752 48.8403 60.3145 49.2363 60.5932 49.515C60.8718 49.7863 61.2238 49.922 61.6492 49.922C62.0745 49.922 62.4265 49.7863 62.7052 49.515C62.9838 49.2363 63.1232 48.8403 63.1232 48.327V48.217C63.1232 47.7037 62.9838 47.3113 62.7052 47.04C62.4338 46.7613 62.0818 46.622 61.6492 46.622C61.2238 46.622 60.8718 46.7613 60.5932 47.04ZM62.0021 48.8038C62.0429 48.7611 62.1232 48.6477 62.1232 48.327V48.217C62.1232 47.8836 62.0368 47.7849 62.0075 47.7565L61.998 47.7472L61.9887 47.7376C61.9277 47.6749 61.8453 47.622 61.6492 47.622C61.4658 47.622 61.3756 47.6718 61.3003 47.7471L61.2908 47.7565C61.2616 47.785 61.1752 47.8836 61.1752 48.217V48.327C61.1752 48.6477 61.2554 48.7611 61.2962 48.8038C61.369 48.8727 61.4624 48.922 61.6492 48.922C61.8359 48.922 61.9293 48.8727 62.0021 48.8038ZM65.5186 52V47.688H65.4838C65.5009 47.8507 65.5092 48.0162 65.5092 48.184V48.36C65.5092 49.0899 65.353 49.7773 64.994 50.3793C64.6482 50.9589 64.1668 51.4096 63.5654 51.7154C62.9765 52.0148 62.3305 52.154 61.6492 52.154C60.9678 52.154 60.3219 52.0148 59.7329 51.7154C59.1315 51.4096 58.6501 50.9589 58.3043 50.3793C57.9453 49.7773 57.7892 49.0899 57.7892 48.36V48.184C57.7892 47.4541 57.9453 46.7667 58.3043 46.1647C58.6501 45.5851 59.1315 45.1344 59.7329 44.8286C60.3219 44.5291 60.9678 44.39 61.6492 44.39C62.3305 44.39 62.9765 44.5291 63.5654 44.8286C63.7683 44.9318 63.9576 45.0515 64.1326 45.187V44.544H65.5186V44.532C65.5186 43.9501 65.697 43.3784 66.1415 42.9339C66.5792 42.4962 67.1382 42.3 67.7286 42.3H70.1586V44.544H70.3346V47.688H68.9046V52H65.5186ZM67.9046 46.688H69.3346V45.544H67.9046V44.774C67.9046 44.6751 67.9254 44.5984 67.9669 44.544C68.0177 44.4773 68.0996 44.444 68.2126 44.444H69.1586V43.3H67.7286C67.3693 43.3 67.076 43.4137 66.8486 43.641C66.6286 43.861 66.5186 44.158 66.5186 44.532V45.544H65.1326V46.688H66.5186V51H67.9046V46.688ZM64.1326 46.6728C63.8835 46.2568 63.5434 45.9392 63.1122 45.72C62.6795 45.5 62.1918 45.39 61.6492 45.39C61.1065 45.39 60.6188 45.5 60.1862 45.72C59.7535 45.94 59.4125 46.259 59.1632 46.677C58.9138 47.095 58.7892 47.5973 58.7892 48.184V48.36C58.7892 48.9467 58.9138 49.449 59.1632 49.867C59.4125 50.285 59.7535 50.604 60.1862 50.824C60.6188 51.044 61.1065 51.154 61.6492 51.154C62.1918 51.154 62.6795 51.044 63.1122 50.824C63.5448 50.604 63.8858 50.285 64.1352 49.867C64.3845 49.449 64.5092 48.9467 64.5092 48.36V48.184C64.5092 48.0114 64.4984 47.846 64.4768 47.688C64.4256 47.3137 64.3139 46.9804 64.1417 46.688C64.1395 46.6843 64.1373 46.6806 64.1352 46.677C64.1343 46.6756 64.1335 46.6742 64.1326 46.6728ZM71.2029 52L73.7526 42.3H77.8248L79.0434 46.9358V44.544H82.3177C82.4316 44.5291 82.5464 44.522 82.6614 44.522H84.2847V42.85H87.6707V44.544H89.1667V47.688H87.6707V48.856H89.0347V52H86.4947C85.914 52 85.3589 51.814 84.9193 51.3886L84.9075 51.3772L84.8961 51.3654C84.4632 50.9181 84.2847 50.3509 84.2847 49.768V47.754H82.6394C82.5247 47.754 82.4667 47.7736 82.4372 47.7897C82.4334 47.8113 82.4294 47.8464 82.4294 47.898V52H76.7985L76.3805 50.306H75.197L74.779 52H71.2029ZM74.4137 49.306H77.1637L77.5817 51H79.0777L77.0537 43.3H74.5237L72.4997 51H73.9957L74.4137 49.306ZM75.8877 44.213H75.6897L74.7547 47.964H76.8227L75.8877 44.213ZM81.4294 51V47.898C81.4294 47.5857 81.5028 47.3397 81.6495 47.16C81.6854 47.116 81.7257 47.076 81.7704 47.04C81.9554 46.8849 82.1816 46.7928 82.4491 46.7639C82.5103 46.7573 82.5738 46.754 82.6394 46.754H83.3214V45.522H82.6614C82.573 45.522 82.4884 45.5284 82.4074 45.5413C82.402 45.5422 82.3966 45.5431 82.3912 45.544C82.3676 45.548 82.3444 45.5526 82.3214 45.5577C82.2068 45.5834 82.1002 45.6228 82.0014 45.676C81.8942 45.736 81.8046 45.816 81.7326 45.9161C81.6813 45.9872 81.6389 46.0686 81.6054 46.16H81.4074V45.544H80.0434V51H81.4294ZM83.9207 45.544V46.688H85.2847V49.768C85.2847 50.142 85.3947 50.4427 85.6147 50.67C85.842 50.89 86.1354 51 86.4947 51H88.0347V49.856H86.9787C86.7734 49.856 86.6707 49.746 86.6707 49.526V46.688H88.1667V45.544H86.6707V43.85H85.2847V45.544H83.9207Z" fill="white"/>
<rect x="17.5" y="14.5" width="15" height="15" fill="#D64E7C" stroke="white"/>
<rect x="59.5" y="6.5" width="15" height="15" fill="#F88D6E" stroke="white"/>
<defs>
<linearGradient id="paint0_linear_401_3" x1="45.5" y1="0" x2="45.5" y2="38" gradientUnits="userSpaceOnUse">
<stop stop-color="#B91A87"/>
<stop offset="1" stop-color="#FD966B"/>
</linearGradient>
</defs>
</svg>
