<svg width="48" height="48" xmlns="http://www.w3.org/2000/svg"><path d="M26.056 4.002c1.46-.005 2.919.01 4.378.044l.388.014c.448.016.89.036 1.424.06 2.128.1 3.58.436 4.854.93 1.32.508 2.432 1.196 3.544 2.308A9.817 9.817 0 0 1 42.95 10.9c.494 1.274.83 2.729.93 4.857.024.531.044.976.06 1.423l.012.389c.035 1.458.05 2.917.046 4.376L44 23.436v2.62c.005 1.46-.01 2.92-.046 4.378l-.012.389c-.016.447-.036.89-.06 1.423-.1 2.128-.44 3.58-.932 4.854a9.768 9.768 0 0 1-2.306 3.544A9.83 9.83 0 0 1 37.1 42.95c-1.274.494-2.726.83-4.854.93-.534.024-.976.044-1.424.06l-.388.013c-1.46.035-2.919.05-4.378.045l-1.492.003h-2.618c-1.46.004-2.919-.01-4.378-.046l-.388-.012c-.475-.018-.95-.038-1.424-.06-2.128-.1-3.58-.44-4.856-.933a9.78 9.78 0 0 1-3.542-2.306A9.809 9.809 0 0 1 5.05 37.1c-.494-1.273-.83-2.726-.93-4.854-.022-.474-.042-.949-.06-1.424l-.01-.387c-.037-1.46-.054-2.919-.05-4.378v-4.112c-.006-1.46.01-2.918.044-4.377l.014-.388c.016-.447.036-.892.06-1.423.1-2.13.436-3.58.93-4.857A9.76 9.76 0 0 1 7.36 7.36a9.794 9.794 0 0 1 3.54-2.31c1.276-.494 2.726-.83 4.856-.93l1.424-.06.388-.01c1.458-.036 2.917-.053 4.376-.05l4.112.002Zm-2.056 10A9.999 9.999 0 1 0 24 34a10 10 0 0 0 0-19.998Zm0 4A6 6 0 1 1 24.002 30a6 6 0 0 1 0-12l-.002.003Zm10.5-7a2.5 2.5 0 0 0 0 4.996 2.5 2.5 0 0 0 0-5v.005Z"/></svg>