<svg width="48" height="48" xmlns="http://www.w3.org/2000/svg"><path fill-rule="evenodd" clip-rule="evenodd" d="M13.191 7.77a19.5 19.5 0 0 1 24.681 29.933 2.25 2.25 0 0 0 3.201 3.162 24 24 0 1 0-34.146 0 2.25 2.25 0 1 0 3.201-3.162A19.5 19.5 0 0 1 13.191 7.77ZM24 13.5a10.5 10.5 0 0 1 7.5 17.846 2.253 2.253 0 0 0 .768 3.664 2.251 2.251 0 0 0 2.448-.514 14.999 14.999 0 1 0-21.432 0A2.25 2.25 0 0 0 16.5 31.35 10.5 10.5 0 0 1 24 13.5ZM30 24a6 6 0 1 1-12 0 6 6 0 0 1 12 0Zm-3.75 12.75a2.25 2.25 0 1 0-4.5 0v9a2.25 2.25 0 1 0 4.5 0v-9Z"/></svg>