<svg width="45" height="45" xmlns="http://www.w3.org/2000/svg"><path d="M18 19.488a4.5 4.5 0 1 1 9 0 4.5 4.5 0 0 1-9 0Z" fill="currentColor"/><path fill-rule="evenodd" clip-rule="evenodd" d="M3 19.488A19.497 19.497 0 0 1 22.5 0C33.267 0 42 8.727 42 19.488c0 8.022-4.014 14.379-8.316 18.675a32.594 32.594 0 0 1-6.345 4.962c-.966.57-1.869 1.02-2.655 1.326-.741.294-1.518.522-2.184.522-.666 0-1.443-.228-2.184-.522a19.359 19.359 0 0 1-2.655-1.326 32.605 32.605 0 0 1-6.345-4.962C7.014 33.867 3 27.51 3 19.488Zm19.5-7.497a7.5 7.5 0 1 0 0 15 7.5 7.5 0 0 0 0-15Z" fill="currentColor"/></svg>