<svg width="62" height="16" fill="currentColor" xmlns="http://www.w3.org/2000/svg"><path d="M45.237 2.56a1.465 1.465 0 0 1-.42-1.049 1.47 1.47 0 0 1 .458-1.034 1.6 1.6 0 0 1 1.08-.44c.406-.006.798.138 1.095.403l6.784 6.5c.294.281.458.662.458 1.06s-.164.779-.458 1.06l-6.784 6.5c-.297.265-.69.41-1.095.402a1.6 1.6 0 0 1-1.08-.439 1.47 1.47 0 0 1-.458-1.034 1.465 1.465 0 0 1 .42-1.049L50.915 8l-5.678-5.44ZM60.434 16c.416 0 .814-.158 1.107-.44.294-.28.459-.662.459-1.06v-13c0-.398-.165-.78-.459-1.06A1.601 1.601 0 0 0 60.434 0a1.6 1.6 0 0 0-1.107.44 1.469 1.469 0 0 0-.458 1.06v13c0 .828.701 1.5 1.565 1.5ZM0 8.343c0-1.136.961-2.057 2.147-2.057h35.787c1.186 0 2.147.92 2.147 2.057 0 1.136-.962 2.057-2.147 2.057H2.147C.961 10.4 0 9.479 0 8.343Z"/></svg>