<svg width="48" height="48" xmlns="http://www.w3.org/2000/svg"><path d="M24 0c13.269 0 24 10.731 24 24S37.269 48 24 48 0 37.269 0 24 10.731 0 24 0Zm-4.389 36.651c10.629 0 16.458-8.811 16.458-16.457v-.754a11.478 11.478 0 0 0 2.88-3.017c-1.029.446-2.16.754-3.326.926 1.2-.72 2.126-1.852 2.537-3.189a12.52 12.52 0 0 1-3.669 1.406 5.773 5.773 0 0 0-4.217-1.817c-3.188 0-5.794 2.605-5.794 5.794 0 .446.034.891.171 1.303A16.436 16.436 0 0 1 12.72 14.81c-.48.858-.789 1.852-.789 2.915a5.79 5.79 0 0 0 2.572 4.8c-.96 0-1.852-.275-2.606-.72v.068a5.812 5.812 0 0 0 4.629 5.692c-.48.137-.995.205-1.509.205-.377 0-.72-.034-1.097-.102.72 2.297 2.88 3.977 5.383 4.011a11.72 11.72 0 0 1-7.2 2.469c-.48 0-.926 0-1.372-.069a16.235 16.235 0 0 0 8.846 2.606"/></svg>